<svg xmlns="http://www.w3.org/2000/svg" width="20" height="14" viewBox="0 0 20 14"><defs><clipPath id="9yu8a"><path d="M0 3a3 3 0 0 1 3-3h14a3 3 0 0 1 3 3v8a3 3 0 0 1-3 3H3a3 3 0 0 1-3-3z"/></clipPath><clipPath id="9yu8b"><path d="M0 3a3 3 0 0 1 3-3h14a3 3 0 0 1 3 3v8a3 3 0 0 1-3 3H3a3 3 0 0 1-3-3z"/></clipPath></defs><g><g><g><g><path fill="#fff" d="M0 3a3 3 0 0 1 3-3h14a3 3 0 0 1 3 3v8a3 3 0 0 1-3 3H3a3 3 0 0 1-3-3z"/></g><g clip-path="url(#9yu8a)"><path fill="#cd0000" d="M0 7h20v8H0z"/></g><g clip-path="url(#9yu8a)"><path fill="#005a8b" d="M10.37 7.407L0 15.815V-1z"/></g></g></g><g><g><g><path fill="#fff" d="M0 3a3 3 0 0 1 3-3h14a3 3 0 0 1 3 3v8a3 3 0 0 1-3 3H3a3 3 0 0 1-3-3z"/></g><g clip-path="url(#9yu8b)"><path fill="#cd0000" d="M0 7h20v8H0z"/></g><g clip-path="url(#9yu8b)"><path fill="#005a8b" d="M10.37 7.407L0 15.815V-1z"/></g></g></g></g></svg>