<svg xmlns="http://www.w3.org/2000/svg" width="1920" height="742" viewBox="0 0 1920 742"><g><g><g><g clip-path="url(#clip-16E6ABA8-6AE7-4F25-A86F-3E037DD4708F+8C889907-7F48-4D98-B9C4-03BD18E14FF1)"><path fill="#f4f7fd" d="M1066.542 686.515c45.937 10.313 98.37 6.26 143.847-11.118 37.191-14.21 66.283-35.797 84.13-62.397 19.344-28.889 24.481-62.349 15.257-99.477-3.493-14.067-8.579-27.856-15.235-41.333-25.405 47.125-55.756 91.457-94.485 130.443-40.14 40.367-86.75 68.282-136.292 83.24.935.222 1.86.436 2.778.642zm-99.067-322.733c-2.178 21.702-6.203 44.693-10.096 66.927C946.14 494.9 934.52 561.271 962 613.27c7.474 14.081 16.838 25.635 27.22 35.115 4.43-.226 8.857-.568 13.274-1.025 60.276-6.246 116.326-33.898 162.09-79.965C1205.706 526 1237 476.797 1263 424.07c-16.879-20.459-37.81-40.069-62.694-58.65C1151.55 329 1089.083 298 1024.416 278.34A535.204 535.204 0 0 0 970.185 265c1.814 30.255.887 62.932-2.71 98.782zM1118.628 742c-53.075 0-105.628-13.693-146.503-43.238-58.23-.762-117.492-18.148-172.818-52.676-52.048-32.482-98.775-80.143-128.199-130.763-37.248-64.078-44.77-128.323-21.755-185.74 27.265-68.039 88.972-109.818 178.448-120.822 28.757-3.537 57.303-3.627 83.921-1.761-8.629-37.187-23.2-68.916-44.276-96.57-5.135-6.74-10.16-13.682-15.446-21.032-18.947-26.123-38.502-53.135-62.616-70.297C764.266 1.225 738-2.624 706.717 7c-37.89 11.632-64.773 36.532-82.184 76.11-14.448 32.89-22.386 74.702-24.982 131.728-1.084 23.816-.736 50.522-.368 78.795 1.201 92.184 2.561 196.667-44.095 270.014-21.44 33.706-47.306 50.555-76.863 50.134-24.34-.362-48.957-12.959-73.165-37.443-18.945-19.16-34.118-41.995-43.51-57.777-14.834-24.927-27.893-65.163-43.015-111.752-27.798-85.645-65.868-202.939-123.143-226.109-17.703-7.16-37.315-4.799-59.957 7.223C60.941 227.476 18.842 279.365 6.731 346.555-4.788 410.465 12.556 480.57 29 534.503L-18.885 549c-18.03-59.26-37.007-136.88-23.59-211.315 7.041-39.066 22.541-74.6 46.068-105.615C29.515 197.9 66 168.187 112 143.762c36-19.109 70.346-22.276 102.143-9.414 36.246 14.652 67.58 49.855 95.793 107.584 22.785 46.624 40.514 101.248 56.157 149.441 13.603 41.913 26.453 81.5 38.424 101.627 25.42 42.703 54.642 70.492 74.483 70.786 11 .148 22.41-8.912 33.9-26.975 38.654-60.811 37.397-157.33 36.287-242.526-.378-29.027-.735-56.443.416-81.72C553.756 121.31 573-4.24 692-40.805c46.1-14.195 88.611-7.709 126.376 19.17 30.806 21.924 53.802 53.69 74.09 81.713 5.135 7.094 9.985 13.794 14.748 20.044 28.371 37.226 47.48 81.963 56.786 133.031 33 5.443 59.655 12.69 75 17.358 86.177 26.253 181.48 74.796 246.74 143.992 17.113-40.034 32.195-81.259 47.096-121.989 17.056-46.626 34.695-94.84 54.966-140.092C1420.9 38.536 1455.744-11 1497.46-43.572c53.766-41.943 117.8-52.856 190.321-32.428 141.3 39.77 264.219 147.223 372.61 242 12.367 10.84 24.048 21.054 35.798 31.21l.34.3c71.53 64.13 219.931 193.916 330.81 289.315l-32.61 37.902c-111.005-95.507-259.607-225.469-331.413-289.84-11.796-10.2-23.476-20.413-35.838-31.22C1923 112.344 1804.665 8.84 1674.23-27.883 1617.077-44 1569.313-36.21 1528.213-4.149c-34.552 26.953-65.554 71.77-94.78 137.012-19.55 43.643-36.88 91.016-53.64 136.83-18.203 49.755-36.663 100.216-58.793 148.864 17 25.443 29.901 53.114 37.302 82.915 12.582 50.666 4.888 98.848-22.249 139.338-23.635 35.262-60.917 63.372-107.817 81.293-34.153 13.05-72.016 19.897-109.608 19.897M877.241 255.89c-15.147 0-29.702.82-43.337 2.498-71.299 8.768-117.775 38.98-138.139 89.795C674.186 402 694 455.133 714.335 490.196c25.09 43.16 66.75 85.58 111.444 113.472 30.585 19.088 62.782 32.25 95.507 39.218a182.466 182.466 0 0 1-3.458-6.237c-35.512-67.134-21.828-145.458-9.7-214.563 3.872-22.329 7.602-43.42 9.597-63.297 3.745-37.314 4.36-70.625 1.828-100.908-14.416-1.319-28.605-1.99-42.312-1.99"/></g></g></g></g></svg>