<svg xmlns="http://www.w3.org/2000/svg" width="159" height="33" viewBox="0 0 159 33"><g><g><g><g><path fill="#7031b4" d="M40.575 26.099c-1.124-.215-2.042-.5-2.755-.858v-3.596c.945.466 1.926.814 2.942 1.047 1.017.232 1.988.349 2.916.349 1.033 0 1.818-.18 2.353-.537.535-.357.803-.859.803-1.503 0-.464-.134-.858-.402-1.18-.267-.322-.655-.612-1.163-.872-.508-.259-1.289-.603-2.34-1.033-1.748-.715-3.014-1.515-3.798-2.4-.785-.886-1.177-1.981-1.177-3.287 0-1.055.285-1.99.856-2.803.57-.814 1.373-1.444 2.407-1.892 1.034-.447 2.229-.67 3.584-.67 1.105 0 2.086.09 2.942.268.856.179 1.694.456 2.514.832v3.487c-1.57-.787-3.138-1.18-4.707-1.18-1 0-1.784.174-2.354.523-.57.349-.856.845-.856 1.489 0 .465.134.85.401 1.153.268.305.642.573 1.124.805.481.233 1.266.573 2.353 1.02 1.266.536 2.256 1.05 2.97 1.542.712.492 1.238 1.073 1.577 1.744.338.67.508 1.498.508 2.481 0 1.7-.61 3.023-1.832 3.971-1.221.948-3.045 1.422-5.47 1.422zM53.547 8.983c0-.608.214-1.122.642-1.543.427-.42.953-.63 1.578-.63.624 0 1.15.21 1.577.63.428.42.642.935.642 1.543 0 .626-.214 1.145-.642 1.556-.427.412-.953.617-1.577.617-.625 0-1.15-.205-1.578-.617-.428-.411-.642-.93-.642-1.556zm.187 4.158h4.065v12.877h-4.065zm11.357 18.806c-.867-.16-1.593-.375-2.182-.643v-2.978c1.374.607 2.962.912 4.764.912 1.445 0 2.48-.295 3.105-.886.624-.59.936-1.475.936-2.656v-.804c-.553.5-1.231.88-2.034 1.14-.803.259-1.66.389-2.57.389-1.32 0-2.501-.291-3.545-.872a6.276 6.276 0 0 1-2.449-2.428c-.589-1.037-.883-2.218-.883-3.541 0-1.36.29-2.558.87-3.595a6.049 6.049 0 0 1 2.408-2.401c1.026-.563 2.2-.845 3.52-.845.999 0 1.882.143 2.65.429.766.286 1.489.742 2.167 1.368v-1.395h3.907v12.046c0 2.235-.66 3.961-1.98 5.178-1.32 1.216-3.355 1.824-6.102 1.824zm5.238-9.35a3.465 3.465 0 0 0 1.378-1.81v-2.414a3.739 3.739 0 0 0-1.405-1.798c-.65-.447-1.395-.67-2.232-.67-1.088 0-1.976.33-2.662.992-.687.662-1.03 1.547-1.03 2.656 0 1.127.343 2.03 1.03 2.71.686.68 1.574 1.019 2.662 1.019zm8.23-9.56h3.905v1.582a5.617 5.617 0 0 1 2.1-1.488 6.705 6.705 0 0 1 2.555-.496c1.747 0 3.053.47 3.918 1.408.865.938 1.297 2.202 1.297 3.793v8.069h-4.039v-7.613c0-1.662-.767-2.494-2.3-2.494-.678 0-1.31.166-1.899.496-.588.331-1.088.818-1.498 1.462v8.149H78.56zm16.443-4.054c0-.608.215-1.122.642-1.543.428-.42.954-.63 1.578-.63.624 0 1.15.21 1.579.63.428.42.642.935.642 1.543 0 .626-.214 1.145-.642 1.556-.428.412-.955.617-1.579.617s-1.15-.205-1.578-.617c-.427-.411-.642-.93-.642-1.556zm.188 4.158h4.055v12.877H95.19z"/></g><g><path fill="#35d883" d="M102.131 25.59a1.436 1.436 0 0 1-.441-1.072c0-.43.151-.796.455-1.1a1.46 1.46 0 0 1 1.07-.456c.428 0 .792.151 1.096.455a1.5 1.5 0 0 1 .455 1.1c0 .43-.152.788-.455 1.073-.304.287-.668.43-1.096.43zm6.405-.952c-1.373-1.19-2.059-2.866-2.059-5.03s.69-3.85 2.073-5.057c1.381-1.207 3.231-1.811 5.55-1.811 2.104 0 3.78.394 5.028 1.18v3.193a5.919 5.919 0 0 0-1.993-.912 9.498 9.498 0 0 0-2.394-.295c-1.248 0-2.246.304-2.995.912-.75.608-1.123 1.538-1.123 2.79s.37 2.178 1.11 2.776c.74.6 1.733.9 2.982.9 1.729 0 3.254-.42 4.573-1.261v3.165c-1.32.823-3.058 1.234-5.215 1.234zm15.714.939c-1.168-.563-2.068-1.359-2.701-2.388-.633-1.028-.95-2.23-.95-3.608 0-1.341.317-2.53.95-3.568.633-1.037 1.533-1.842 2.701-2.414 1.168-.572 2.527-.859 4.08-.859 1.532 0 2.883.287 4.051.859 1.167.572 2.068 1.377 2.701 2.414.633 1.037.95 2.227.95 3.568 0 1.378-.317 2.58-.95 3.608-.633 1.03-1.529 1.825-2.688 2.388-1.16.564-2.514.845-4.065.845zm6.682-3.327c.643-.67.964-1.56.964-2.669 0-1.144-.317-2.043-.95-2.696-.635-.653-1.505-.98-2.612-.98-1.107 0-1.982.327-2.625.98s-.964 1.552-.964 2.696c0 1.11.326 1.999.978 2.67.65.67 1.522 1.006 2.611 1.006zm7.373-9.107h3.773v1.556a5.832 5.832 0 0 1 1.926-1.449c.732-.34 1.49-.51 2.275-.51.98 0 1.766.157 2.355.47a3.398 3.398 0 0 1 1.391 1.381 5.623 5.623 0 0 1 2.02-1.368 6.261 6.261 0 0 1 2.369-.483c1.641 0 2.814.42 3.519 1.261.704.84 1.057 2.057 1.057 3.649v8.37h-3.853v-7.807c0-.823-.161-1.413-.482-1.77-.322-.358-.839-.537-1.553-.537-.998 0-1.801.393-2.408 1.18.036.573.054 1.038.054 1.395v7.539h-3.88v-7.941c0-.787-.138-1.346-.415-1.677-.277-.33-.754-.496-1.431-.496-1.054 0-1.99.6-2.81 1.797v8.317h-3.907z"/></g><g><path fill="#7031b4" d="M13.014.09l10.312 17.916a5.79 5.79 0 0 1-2.109 7.895l-9.882 5.722L1.023 13.708a5.79 5.79 0 0 1 2.109-7.895z"/></g><g><path fill="#35d883" d="M21.24 8.805l-10.743 6.027c-1.677.941-3.822.383-4.79-1.247-.968-1.63-.394-3.713 1.283-4.654L20.77 1.2l1.754 2.95zm-3.067 14.61l-13.789 7.73-1.753-2.95c-.97-1.63-.394-3.713 1.284-4.654l10.75-6.028c1.677-.94 3.823-.382 4.792 1.247z"/></g></g></g></g></svg>