<?xml version="1.0" encoding="UTF-8"?>
<svg xmlns="http://www.w3.org/2000/svg" xmlns:xlink="http://www.w3.org/1999/xlink" width="50px" height="50px" viewBox="0 0 50 50" version="1.1">
  <title>ico/50-6duvodu-rychlejsi</title>
  <g id="ico/50-6duvodu-rychlejsi" stroke="none" stroke-width="1" fill="none" fill-rule="evenodd">
    <g id="Group-11" transform="translate(5.000000, 8.000000)" stroke="#7031B4" stroke-width="2">
      <path d="M18.9283109,2.7704918 C18.9283109,1.24039143 17.6879195,6.07103541e-16 16.1578191,0 L4,0 C1.790861,-3.82769592e-17 -7.1463071e-16,1.790861 0,4 L0,10.5221713 C2.705415e-16,12.7313103 1.790861,14.5221713 4,14.5221713 L5.18701031,14.5221713 L5.18701031,14.5221713" id="Path-42"></path>
      <path d="M34,9 C36.7614237,9 39,11.2385763 39,14 L39,27 C39,29.7614237 36.7614237,32 34,32 L25.582,32 L21.6304348,36.5983607 L17.678,32 L10,32 C7.23857625,32 5,29.7614237 5,27 L5,14 C5,11.2385763 7.23857625,9 10,9 L34,9 Z" id="Combined-Shape"></path>
      <path d="M14.9830722,9.07377049 L14.9830722,7 C14.9830722,4.790861 16.7739332,3 18.9830722,3 L32.0932792,3 C34.3024182,3 36.0932792,4.790861 36.0932792,7 L36.0932792,9.07377049 L36.0932792,9.07377049" id="Path"></path>
    </g>
    <g id="Group-11" transform="translate(21.012405, 21.000000)" stroke="#7031B4" stroke-width="2">
      <path d="M12.0662993,4.52976284 L16.2323077,9.88605939 C16.5713777,10.3220066 16.4928433,10.9502822 16.0568961,11.2893522 C15.8813632,11.4258778 15.6653313,11.5 15.4429555,11.5 L5.53223418,11.5 C4.97994943,11.5 4.53223418,11.0522847 4.53223418,10.5 C4.53223418,10.2776241 4.60635639,10.0615923 4.74288197,9.88605939 L8.90889039,4.52976284 C9.58703046,3.65786846 10.8435817,3.50079956 11.7154761,4.17893964 C11.8465248,4.28086646 11.9643724,4.39871407 12.0662993,4.52976284 Z" id="Triangle" transform="translate(10.487595, 7.000000) rotate(-270.000000) translate(-10.487595, -7.000000) "></path>
      <path d="M6.26604839,4 L8.70527702,8.52553827 C8.967315,9.01170135 8.7856257,9.61823815 8.29946262,9.88027613 C8.153664,9.95886041 7.99062917,10 7.82500089,10 L-1.82506805,10 C-2.3773528,10 -2.82506805,9.55228475 -2.82506805,9 C-2.82506805,8.83438366 -2.78393439,8.67136022 -2.70536092,8.52556934 L-0.267200684,4.00163095 L-0.267200684,4.00163095" id="Triangle-Copy" transform="translate(3.000000, 7.000000) rotate(-270.000000) translate(-3.000000, -7.000000) "></path>
    </g>
  </g>
</svg>
