<?xml version="1.0" encoding="UTF-8"?>
<svg xmlns="http://www.w3.org/2000/svg" xmlns:xlink="http://www.w3.org/1999/xlink" width="50px" height="50px" viewBox="0 0 50 50" version="1.1">
  <title>ico/50-6duvodu-uspora</title>
  <g id="ico/50-6duvodu-uspora" stroke="none" stroke-width="1" fill="none" fill-rule="evenodd">
    <circle id="Oval" stroke="#7031B4" stroke-width="2" cx="27.2991256" cy="6.19730477" r="2.19730477"></circle>
    <circle id="Oval-Copy-23" stroke="#7031B4" stroke-width="2" cx="36.4913768" cy="12.9915774" r="2.59696786"></circle>
    <circle id="Oval-Copy-24" stroke="#7031B4" stroke-width="2" cx="27.6987887" cy="20.1855131" r="3.39629406"></circle>
    <polyline id="Path-50" stroke="#7031B4" stroke-width="2" points="4 34.6807357 8.9767794 29.6684477 18.634724 39.5100707 14.9273698 43.3067064"></polyline>
    <path d="M10.3671673,30.9653692 C12.9145909,27.8014325 15.6704431,26.2194642 18.634724,26.2194642 C23.0811453,26.2194642 24.4002952,28.5924167 25.9557556,28.5924167 C27.511216,28.5924167 28.6320118,28.5924167 31.5271388,28.5924167 C34.4222658,28.5924167 34.4222658,32.1254296 31.5271388,32.1254296 C28.6320118,32.1254296 26.9999554,32.1254296 25.4423471,32.1254296 C24.4039415,32.1254296 23.708229,32.5057391 23.3552095,33.2663583" id="Path-51" stroke="#7031B4" stroke-width="2"></path>
    <path d="M33.698484,29.3694613 C36.3848076,27.1708739 38.1174497,25.702601 38.8964103,24.9646428 C40.0648512,23.8577055 41.3144397,23.4118904 42.5795297,23.6347979 C43.8446197,23.8577055 44.3453841,25.0594795 43.1593728,26.2194642 C41.9733615,27.3794489 36.1727914,34.4615254 34.1258195,35.7881025 C32.0788476,37.1146796 29.9645403,37.1572146 28.3857348,37.1572146 C26.8069293,37.1572146 21.7038749,37.1572146 19.8668052,37.1572146 C18.642092,37.1572146 17.8218179,37.491755 17.4059827,38.1608359" id="Path-52" stroke="#7031B4" stroke-width="2"></path>
  </g>
</svg>
