<?xml version="1.0" encoding="UTF-8"?>
<svg xmlns="http://www.w3.org/2000/svg" xmlns:xlink="http://www.w3.org/1999/xlink" width="50px" height="50px" viewBox="0 0 50 50" version="1.1">
  <title>ico/50-6duvodu-zavaznost</title>
  <g id="ico/50-6duvodu-zavaznost" stroke="none" stroke-width="1" fill="none" fill-rule="evenodd">
    <g id="Group" transform="translate(3.000000, 7.000000)" stroke="#7031B4" stroke-width="2">
      <path d="M8.27863772,11.2679888 C8.27863772,11.7280538 8.27863772,12.3043521 8.27863772,12.9968838 C8.27863772,14.0356814 9.24696027,14.4352194 9.24696027,15.6486048 C9.24696027,16.8619902 8.03635572,27.2912234 8.03635572,30.3100776 C8.03635572,33.3289318 9.29585885,34.7463891 11.0566691,34.7463891 C12.8174794,34.7463891 13.3911158,32.8699733 13.3911158,30.3100776 C13.3911158,27.7501819 12.2680009,16.931478 12.2680009,15.6486048 C12.2680009,14.3657316 13.3911158,14.3166932 13.3911158,12.9968838 C13.3911158,12.1170109 13.3911158,11.5407126 13.3911158,11.2679888" id="Path-38" transform="translate(10.713736, 23.007189) rotate(50.000000) translate(-10.713736, -23.007189) "></path>
      <path d="M17.5488528,16.5926294 C15.8204194,16.5926294 14.8263364,15.0166422 14.8263364,13.4104226 C14.8263364,11.8042029 14.8263364,10.4289975 14.8263364,8.44741522 C14.8263364,6.46583295 16.5426862,6.15550834 17.5488528,6.15550834 C18.2196306,6.15550834 18.9129268,6.73746891 19.6287416,7.90139006 C20.2359653,6.73746891 21.0785633,6.15550834 22.1565355,6.15550834 C23.7734938,6.15550834 25.6693171,6.15550834 27.5112955,6.15550834 C28.7392812,6.15550834 29.5540507,6.73746891 29.9556043,7.90139006 C30.4136662,6.55649585 31.2770344,5.88404875 32.545709,5.88404875 C34.448721,5.88404875 35.1819898,7.85071647 35.1819898,8.44741522 C35.1819898,9.04411398 35.1819898,12.689862 35.1819898,14.3484463 C35.1819898,16.0070306 33.500828,16.3991726 32.545709,16.3991726 C31.9089631,16.3991726 31.0455948,15.8259434 29.9556043,14.6794849 C29.4138024,15.8259434 28.5990328,16.3991726 27.5112955,16.3991726 C25.8796896,16.3991726 23.5136213,16.3991726 22.1565355,16.3991726 C21.2518116,16.3991726 20.4092136,15.8259434 19.6287416,14.6794849 C19.394438,15.9549146 18.7011418,16.5926294 17.5488528,16.5926294 Z" id="Path-39" transform="translate(25.004163, 11.238339) rotate(50.000000) translate(-25.004163, -11.238339) "></path>
      <line x1="21.3440274" y1="5.38034607" x2="21.3440274" y2="9.04005534" id="Path-40" transform="translate(21.344027, 7.210201) rotate(50.000000) translate(-21.344027, -7.210201) "></line>
      <line x1="28.7947918" y1="14.2598213" x2="28.7947918" y2="17.9195305" id="Path-40-Copy" transform="translate(28.794792, 16.089676) rotate(50.000000) translate(-28.794792, -16.089676) "></line>
      <path d="M25.5442333,27.0197057 C25.3148547,25.6899211 25.6531897,25.0250288 26.5592381,25.0250288 C27.9183108,25.0250288 34.6178773,25.0250288 36.1919947,25.0250288 C37.7661121,25.0250288 38.3119122,25.24188 38.3119122,25.8837596 C38.3119122,26.3116794 38.3119122,26.9006392 38.3119122,27.6506391 C39.4645396,27.6506391 41.142865,29.0372524 41.142865,29.9154367 C41.142865,30.5008929 41.142865,31.0096099 41.142865,31.4415875 C40.9708341,32.497215 40.4203255,33.0250288 39.4913392,33.0250288 C38.0978597,33.0250288 26.2663746,33.0250288 25.0041631,33.0250288 C23.7419516,33.0250288 23.0340537,32.2742962 23.0340537,31.4415875 C23.0340537,30.6088788 23.0340537,30.6440568 23.0340537,29.9154367 C23.0340537,29.1868166 23.8075679,27.6506391 26.0010075,27.6506391" id="Path-41"></path>
    </g>
  </g>
</svg>
