<?xml version="1.0" encoding="UTF-8"?>
<svg xmlns="http://www.w3.org/2000/svg" xmlns:xlink="http://www.w3.org/1999/xlink" width="50px" height="50px" viewBox="0 0 50 50" version="1.1">
  <title>ico/50-6duvodu-jednodussi</title>
  <g id="ico/50-6duvodu-jednodussi" stroke="none" stroke-width="1" fill="none" fill-rule="evenodd">
    <path d="M6,24.7197923 C9.21562668,24.7197923 13.8401702,21.76898 15.251348,26.7659154 C16.6625258,31.7628509 14.048345,35.3949012 10.5782633,33.8449259 C7.10818157,32.2949505 4.78104496,22.4407049 8.2108395,18.7392713 C11.640634,15.0378376 19.0926974,14.6414616 18.1673389,18.7392713 C17.2419805,22.837081 12.3144408,23.4608354 12.3144408,28.0645306 C12.3144408,32.6682258 10.450764,42.7466576 18.1673389,41.7056294 C25.8839139,40.6646012 27.4107429,36.7930449 25.4212347,32.4287877 C23.4317265,28.0645306 15.5377683,24.397072 13.4965912,19.7934139 C11.4554141,15.1897557 9.37753352,11.2011119 12.3144408,8.26309896 C15.251348,5.32508598 22.6214139,7.50236848 22.6214139,14.9012021 C22.6214139,22.3000356 12.6334137,30.329328 15.251348,33.2174416 C17.8692823,36.1055551 19.9971765,30.8137291 22.2032799,28.3997521 C25.1902357,25.1313456 29.3936204,23.837081 35.9853275,23.837081 C40.3797989,23.837081 44.8288057,23.837081 49.332348,23.837081" id="Path-31" stroke="#7031B4" stroke-width="2"></path>
    <polyline id="Path-32" stroke="#7031B4" stroke-width="2" stroke-linecap="round" points="44.332348 18.837081 49.332348 23.837081 44.332348 28.837081"></polyline>
  </g>
</svg>
